STARTFONT 2.1
FONT -FontForge-Public Pixel-Book-R-Normal--11-110-75-75-C-120-ISO10646-1
SIZE 19 75 75
FONTBOUNDINGBOX 11 11 0 0
COMMENT "Generated by fontforge, http://fontforge.sourceforge.net"
STARTPROPERTIES 32
FOUNDRY "FontForge"
FAMILY_NAME "Public Pixel"
WEIGHT_NAME "Book"
SLANT "R"
SETWIDTH_NAME "Normal"
ADD_STYLE_NAME ""
PIXEL_SIZE 19
POINT_SIZE 110
RESOLUTION_X 75
RESOLUTION_Y 75
SPACING "C"
AVERAGE_WIDTH 120
CHARSET_REGISTRY "ISO10646"
CHARSET_ENCODING "1"
FONTNAME_REGISTRY ""
CHARSET_COLLECTIONS "ISO10646-1"
FONT_NAME "PublicPixel"
FACE_NAME "Public Pixel"
COPYRIGHT "Generated by fontforge, http://fontforge.sourceforge.net"
FONT_VERSION "001.000"
FONT_ASCENT 11
FONT_DESCENT 0
UNDERLINE_POSITION 0
UNDERLINE_THICKNESS 1
X_HEIGHT 6
CAP_HEIGHT 9
RAW_ASCENT 1000
RAW_DESCENT 0
NORM_SPACE 12
FIGURE_WIDTH 12
AVG_LOWERCASE_WIDTH 120
AVG_UPPERCASE_WIDTH 120
ENDPROPERTIES
CHARS 96
STARTCHAR space
ENCODING 32
SWIDTH 1000 0
DWIDTH 12 0
BBX 1 1 1 0
BITMAP
00
ENDCHAR
STARTCHAR exclam
ENCODING 33
SWIDTH 1000 0
DWIDTH 12 0
BBX 4 10 4 0
BITMAP
60
F0
F0
F0
F0
F0
60
00
60
60
ENDCHAR
STARTCHAR quotedbl
ENCODING 34
SWIDTH 1000 0
DWIDTH 12 0
BBX 7 6 2 4
BITMAP
EE
EE
EE
66
CC
88
ENDCHAR
STARTCHAR numbersign
ENCODING 35
SWIDTH 1000 0
DWIDTH 12 0
BBX 10 10 1 0
BITMAP
7380
7380
FFC0
7380
7380
7380
7380
FFC0
7380
7380
ENDCHAR
STARTCHAR dollar
ENCODING 36
SWIDTH 1000 0
DWIDTH 12 0
BBX 10 11 0 0
BITMAP
0C00
7F80
EC00
EC00
EC00
7F80
0DC0
0DC0
0DC0
FF80
0C00
ENDCHAR
STARTCHAR percent
ENCODING 37
SWIDTH 1000 0
DWIDTH 12 0
BBX 11 9 0 0
BITMAP
70C0
D1C0
D380
6700
0E00
1CC0
3960
7160
61C0
ENDCHAR
STARTCHAR ampersand
ENCODING 38
SWIDTH 1000 0
DWIDTH 12 0
BBX 10 10 0 0
BITMAP
7C00
E600
EE00
7C00
FDC0
E7C0
E380
E180
F180
7F80
ENDCHAR
STARTCHAR quotesingle
ENCODING 39
SWIDTH 1000 0
DWIDTH 12 0
BBX 3 6 3 4
BITMAP
E0
E0
E0
60
C0
80
ENDCHAR
STARTCHAR parenleft
ENCODING 40
SWIDTH 1000 0
DWIDTH 12 0
BBX 6 10 2 0
BITMAP
1C
70
70
E0
E0
E0
E0
70
70
1C
ENDCHAR
STARTCHAR parenright
ENCODING 41
SWIDTH 1000 0
DWIDTH 12 0
BBX 6 10 3 0
BITMAP
E0
38
38
1C
1C
1C
1C
3C
38
E0
ENDCHAR
STARTCHAR asterisk
ENCODING 42
SWIDTH 1000 0
DWIDTH 12 0
BBX 7 5 2 5
BITMAP
C6
EE
7C
EE
C6
ENDCHAR
STARTCHAR plus
ENCODING 43
SWIDTH 1000 0
DWIDTH 12 0
BBX 8 8 2 1
BITMAP
18
18
18
FF
FF
18
18
18
ENDCHAR
STARTCHAR comma
ENCODING 44
SWIDTH 1000 0
DWIDTH 12 0
BBX 3 6 3 0
BITMAP
E0
E0
E0
20
C0
80
ENDCHAR
STARTCHAR hyphen
ENCODING 45
SWIDTH 1000 0
DWIDTH 12 0
BBX 6 2 2 3
BITMAP
FC
FC
ENDCHAR
STARTCHAR period
ENCODING 46
SWIDTH 1000 0
DWIDTH 12 0
BBX 3 3 3 0
BITMAP
E0
E0
E0
ENDCHAR
STARTCHAR slash
ENCODING 47
SWIDTH 1000 0
DWIDTH 12 0
BBX 9 9 1 1
BITMAP
0180
0380
0700
0E00
1C00
3800
7000
E000
C000
ENDCHAR
STARTCHAR zero
ENCODING 48
SWIDTH 1000 0
DWIDTH 12 0
BBX 10 10 0 0
BITMAP
3F00
6380
E1C0
E1C0
E1C0
E1C0
E1C0
E1C0
7180
3F00
ENDCHAR
STARTCHAR one
ENCODING 49
SWIDTH 1000 0
DWIDTH 12 0
BBX 8 10 2 0
BITMAP
FC
1C
1C
1C
1C
1C
1C
1C
1C
FF
ENDCHAR
STARTCHAR two
ENCODING 50
SWIDTH 1000 0
DWIDTH 12 0
BBX 10 10 0 0
BITMAP
7F80
61C0
E1C0
0380
0380
0E00
3800
E000
E000
FFC0
ENDCHAR
STARTCHAR three
ENCODING 51
SWIDTH 1000 0
DWIDTH 12 0
BBX 10 10 0 0
BITMAP
7F80
61C0
E1C0
01C0
0180
0FC0
01C0
E1C0
6180
7F80
ENDCHAR
STARTCHAR four
ENCODING 52
SWIDTH 1000 0
DWIDTH 12 0
BBX 10 10 0 0
BITMAP
07C0
0DC0
19C0
31C0
E1C0
FFC0
01C0
01C0
01C0
01C0
ENDCHAR
STARTCHAR five
ENCODING 53
SWIDTH 1000 0
DWIDTH 12 0
BBX 10 10 0 0
BITMAP
FFC0
E000
E000
FF80
01C0
01C0
01C0
E1C0
6180
7F80
ENDCHAR
STARTCHAR six
ENCODING 54
SWIDTH 1000 0
DWIDTH 12 0
BBX 10 10 0 0
BITMAP
7F00
6100
E1C0
E000
E000
FF00
E1C0
E1C0
E1C0
7F00
ENDCHAR
STARTCHAR seven
ENCODING 55
SWIDTH 1000 0
DWIDTH 12 0
BBX 10 10 0 0
BITMAP
FFC0
E1C0
E1C0
0780
0700
0C00
3800
3800
E000
E000
ENDCHAR
STARTCHAR eight
ENCODING 56
SWIDTH 1000 0
DWIDTH 12 0
BBX 10 10 0 0
BITMAP
7F80
E1C0
E1C0
E1C0
6180
7F80
E1C0
E1C0
E1C0
7F80
ENDCHAR
STARTCHAR nine
ENCODING 57
SWIDTH 1000 0
DWIDTH 12 0
BBX 10 10 0 0
BITMAP
7F80
E1C0
E1C0
E1C0
E1C0
7FC0
01C0
E1C0
6180
7F80
ENDCHAR
STARTCHAR colon
ENCODING 58
SWIDTH 1000 0
DWIDTH 12 0
BBX 3 6 3 2
BITMAP
E0
E0
E0
00
E0
E0
ENDCHAR
STARTCHAR semicolon
ENCODING 59
SWIDTH 1000 0
DWIDTH 12 0
BBX 3 8 3 0
BITMAP
E0
E0
E0
00
E0
E0
60
C0
ENDCHAR
STARTCHAR less
ENCODING 60
SWIDTH 1000 0
DWIDTH 12 0
BBX 6 7 2 1
BITMAP
1C
38
70
E0
70
38
1C
ENDCHAR
STARTCHAR equal
ENCODING 61
SWIDTH 1000 0
DWIDTH 12 0
BBX 6 5 2 2
BITMAP
FC
FC
00
FC
FC
ENDCHAR
STARTCHAR greater
ENCODING 62
SWIDTH 1000 0
DWIDTH 12 0
BBX 6 7 3 1
BITMAP
E0
70
38
1C
38
70
E0
ENDCHAR
STARTCHAR question
ENCODING 63
SWIDTH 1000 0
DWIDTH 12 0
BBX 9 10 0 0
BITMAP
7F00
FF80
C180
0180
0780
1F00
1C00
0000
1C00
1C00
ENDCHAR
STARTCHAR at
ENCODING 64
SWIDTH 1000 0
DWIDTH 12 0
BBX 9 10 0 0
BITMAP
7E00
C180
C180
C180
CD80
CD80
CF00
C000
C000
7F00
ENDCHAR
STARTCHAR A
ENCODING 65
SWIDTH 1000 0
DWIDTH 12 0
BBX 10 10 0 0
BITMAP
1E00
7380
7380
E1C0
E1C0
FFC0
E1C0
E1C0
E1C0
E1C0
ENDCHAR
STARTCHAR B
ENCODING 66
SWIDTH 1000 0
DWIDTH 12 0
BBX 10 10 0 0
BITMAP
FF80
E1C0
E1C0
E1C0
E180
FFC0
E1C0
E1C0
E180
FF80
ENDCHAR
STARTCHAR C
ENCODING 67
SWIDTH 1000 0
DWIDTH 12 0
BBX 10 10 0 0
BITMAP
7F80
6080
E0C0
E000
E000
E000
E000
E0C0
6080
7F80
ENDCHAR
STARTCHAR D
ENCODING 68
SWIDTH 1000 0
DWIDTH 12 0
BBX 10 10 0 0
BITMAP
FE00
E380
E180
E1C0
E1C0
E1C0
E1C0
E180
E380
FE00
ENDCHAR
STARTCHAR E
ENCODING 69
SWIDTH 1000 0
DWIDTH 12 0
BBX 10 10 0 0
BITMAP
FFC0
E000
E000
E000
E000
FE00
E000
E000
E000
FFC0
ENDCHAR
STARTCHAR F
ENCODING 70
SWIDTH 1000 0
DWIDTH 12 0
BBX 10 10 0 0
BITMAP
FFC0
E000
E000
E000
E000
FE00
E000
E000
E000
E000
ENDCHAR
STARTCHAR G
ENCODING 71
SWIDTH 1000 0
DWIDTH 12 0
BBX 10 10 0 0
BITMAP
7FC0
6000
E000
E000
E000
E7C0
E1C0
E1C0
E1C0
7FC0
ENDCHAR
STARTCHAR H
ENCODING 72
SWIDTH 1000 0
DWIDTH 12 0
BBX 10 10 0 0
BITMAP
E1C0
E1C0
E1C0
E1C0
E1C0
FFC0
E1C0
E1C0
E1C0
E1C0
ENDCHAR
STARTCHAR I
ENCODING 73
SWIDTH 1000 0
DWIDTH 12 0
BBX 9 10 1 0
BITMAP
FF80
1C00
1C00
1C00
1C00
1C00
1C00
1C00
1C00
FF80
ENDCHAR
STARTCHAR J
ENCODING 74
SWIDTH 1000 0
DWIDTH 12 0
BBX 10 10 0 0
BITMAP
0FC0
01C0
01C0
01C0
01C0
E1C0
E1C0
E1C0
E1C0
7F00
ENDCHAR
STARTCHAR K
ENCODING 75
SWIDTH 1000 0
DWIDTH 12 0
BBX 10 10 0 0
BITMAP
E1C0
E380
E380
EE00
EE00
FE00
EE00
E380
E380
E1C0
ENDCHAR
STARTCHAR L
ENCODING 76
SWIDTH 1000 0
DWIDTH 12 0
BBX 10 10 0 0
BITMAP
E000
E000
E000
E000
E000
E000
E000
E000
E000
FFC0
ENDCHAR
STARTCHAR M
ENCODING 77
SWIDTH 1000 0
DWIDTH 12 0
BBX 10 10 0 0
BITMAP
E1C0
E1C0
F3C0
FFC0
FFC0
EDC0
E1C0
E1C0
E1C0
E1C0
ENDCHAR
STARTCHAR N
ENCODING 78
SWIDTH 1000 0
DWIDTH 12 0
BBX 10 10 0 0
BITMAP
E1C0
E1C0
F1C0
FDC0
FFC0
EFC0
E3C0
E1C0
E1C0
E1C0
ENDCHAR
STARTCHAR O
ENCODING 79
SWIDTH 1000 0
DWIDTH 12 0
BBX 10 10 0 0
BITMAP
7F80
6180
E1C0
E1C0
E1C0
E1C0
E1C0
E1C0
6180
7F80
ENDCHAR
STARTCHAR P
ENCODING 80
SWIDTH 1000 0
DWIDTH 12 0
BBX 10 10 0 0
BITMAP
FF80
E1C0
E1C0
E1C0
E1C0
FF80
E000
E000
E000
E000
ENDCHAR
STARTCHAR Q
ENCODING 81
SWIDTH 1000 0
DWIDTH 12 0
BBX 10 10 0 0
BITMAP
7F80
6180
E1C0
E1C0
E1C0
E1C0
EDC0
E780
63C0
7EC0
ENDCHAR
STARTCHAR R
ENCODING 82
SWIDTH 1000 0
DWIDTH 12 0
BBX 10 10 0 0
BITMAP
FF80
E1C0
E1C0
E1C0
E1C0
FF80
E700
E380
E380
E1C0
ENDCHAR
STARTCHAR S
ENCODING 83
SWIDTH 1000 0
DWIDTH 12 0
BBX 10 10 0 0
BITMAP
7F80
6180
E1C0
E000
E000
7FC0
01C0
E1C0
61C0
7F80
ENDCHAR
STARTCHAR T
ENCODING 84
SWIDTH 1000 0
DWIDTH 12 0
BBX 9 10 1 0
BITMAP
FF80
1C00
1C00
1C00
1C00
1C00
1C00
1C00
1C00
1C00
ENDCHAR
STARTCHAR U
ENCODING 85
SWIDTH 1000 0
DWIDTH 12 0
BBX 10 10 0 0
BITMAP
E1C0
E1C0
E1C0
E1C0
E1C0
E1C0
E1C0
E1C0
6180
7F80
ENDCHAR
STARTCHAR V
ENCODING 86
SWIDTH 1000 0
DWIDTH 12 0
BBX 10 10 0 0
BITMAP
E1C0
E1C0
E1C0
E1C0
E1C0
E1C0
7380
7F80
1E00
0C00
ENDCHAR
STARTCHAR W
ENCODING 87
SWIDTH 1000 0
DWIDTH 12 0
BBX 10 10 0 0
BITMAP
E1C0
E1C0
E1C0
EDC0
FFC0
FFC0
FFC0
F3C0
E1C0
E1C0
ENDCHAR
STARTCHAR X
ENCODING 88
SWIDTH 1000 0
DWIDTH 12 0
BBX 10 10 0 0
BITMAP
E1C0
E1C0
F3C0
3F00
1E00
1E00
3F00
F3C0
E1C0
E1C0
ENDCHAR
STARTCHAR Y
ENCODING 89
SWIDTH 1000 0
DWIDTH 12 0
BBX 9 10 1 0
BITMAP
E380
E380
E380
E380
E380
7F00
7F00
1C00
1C00
1C00
ENDCHAR
STARTCHAR Z
ENCODING 90
SWIDTH 1000 0
DWIDTH 12 0
BBX 10 10 0 0
BITMAP
FFC0
03C0
03C0
0780
0F80
7E00
7C00
F000
F000
FFC0
ENDCHAR
STARTCHAR bracketleft
ENCODING 91
SWIDTH 1000 0
DWIDTH 12 0
BBX 7 10 2 0
BITMAP
FE
E0
E0
E0
E0
E0
E0
E0
E0
FE
ENDCHAR
STARTCHAR backslash
ENCODING 92
SWIDTH 1000 0
DWIDTH 12 0
BBX 9 9 1 1
BITMAP
C000
E000
7000
3800
1C00
0E00
0700
0380
0180
ENDCHAR
STARTCHAR bracketright
ENCODING 93
SWIDTH 1000 0
DWIDTH 12 0
BBX 7 10 2 0
BITMAP
FE
06
06
06
06
06
06
06
06
FE
ENDCHAR
STARTCHAR asciicircum
ENCODING 94
SWIDTH 1000 0
DWIDTH 12 0
BBX 9 6 1 3
BITMAP
0C00
1E00
3E00
6380
C180
8080
ENDCHAR
STARTCHAR underscore
ENCODING 95
SWIDTH 1000 0
DWIDTH 12 0
BBX 9 2 0 0
BITMAP
FF80
FF80
ENDCHAR
STARTCHAR grave
ENCODING 96
SWIDTH 1000 0
DWIDTH 12 0
BBX 3 3 3 7
BITMAP
C0
E0
60
ENDCHAR
STARTCHAR a
ENCODING 97
SWIDTH 1000 0
DWIDTH 12 0
BBX 10 7 0 0
BITMAP
7F80
0180
01C0
7FC0
C1C0
C1C0
7FC0
ENDCHAR
STARTCHAR b
ENCODING 98
SWIDTH 1000 0
DWIDTH 12 0
BBX 10 10 0 0
BITMAP
E000
E000
E000
FF80
E1C0
E1C0
E1C0
E1C0
E1C0
FF80
ENDCHAR
STARTCHAR c
ENCODING 99
SWIDTH 1000 0
DWIDTH 12 0
BBX 10 7 0 0
BITMAP
7F00
6100
E1C0
E000
E000
61C0
7F00
ENDCHAR
STARTCHAR d
ENCODING 100
SWIDTH 1000 0
DWIDTH 12 0
BBX 9 10 0 0
BITMAP
0380
0380
0380
7F80
6380
E380
E380
E380
E380
7F80
ENDCHAR
STARTCHAR e
ENCODING 101
SWIDTH 1000 0
DWIDTH 12 0
BBX 10 7 0 0
BITMAP
7F80
61C0
E1C0
FFC0
E000
E000
7F80
ENDCHAR
STARTCHAR f
ENCODING 102
SWIDTH 1000 0
DWIDTH 12 0
BBX 10 10 0 0
BITMAP
1F80
1C00
1C00
FFC0
1C00
1C00
1C00
1C00
1C00
1C00
ENDCHAR
STARTCHAR g
ENCODING 103
SWIDTH 1000 0
DWIDTH 12 0
BBX 10 7 0 0
BITMAP
7FC0
C1C0
C1C0
7FC0
01C0
01C0
7FC0
ENDCHAR
STARTCHAR h
ENCODING 104
SWIDTH 1000 0
DWIDTH 12 0
BBX 10 10 0 0
BITMAP
E000
E000
E000
FF80
E1C0
E1C0
E1C0
E1C0
E1C0
E1C0
ENDCHAR
STARTCHAR i
ENCODING 105
SWIDTH 1000 0
DWIDTH 12 0
BBX 10 10 0 0
BITMAP
0600
0600
0000
3E00
0600
0600
0600
0600
0600
FFC0
ENDCHAR
STARTCHAR j
ENCODING 106
SWIDTH 1000 0
DWIDTH 12 0
BBX 10 10 0 0
BITMAP
01C0
01C0
0000
0000
01C0
01C0
01C0
E1C0
61C0
7F80
ENDCHAR
STARTCHAR k
ENCODING 107
SWIDTH 1000 0
DWIDTH 12 0
BBX 10 10 0 0
BITMAP
E000
E000
E1C0
E780
E780
FE00
E600
E780
E780
E1C0
ENDCHAR
STARTCHAR l
ENCODING 108
SWIDTH 1000 0
DWIDTH 12 0
BBX 10 10 0 0
BITMAP
E000
E000
E000
E000
E000
E000
E000
7800
7E00
0FC0
ENDCHAR
STARTCHAR m
ENCODING 109
SWIDTH 1000 0
DWIDTH 12 0
BBX 10 7 0 0
BITMAP
FF80
E580
E5C0
E5C0
E5C0
E5C0
E5C0
ENDCHAR
STARTCHAR n
ENCODING 110
SWIDTH 1000 0
DWIDTH 12 0
BBX 10 7 0 0
BITMAP
FF80
E180
E1C0
E1C0
E1C0
E1C0
E1C0
ENDCHAR
STARTCHAR o
ENCODING 111
SWIDTH 1000 0
DWIDTH 12 0
BBX 10 7 0 0
BITMAP
7F80
6180
E1C0
E1C0
E1C0
E1C0
7F80
ENDCHAR
STARTCHAR p
ENCODING 112
SWIDTH 1000 0
DWIDTH 12 0
BBX 9 7 0 0
BITMAP
FF00
E180
E180
FF00
E000
E000
E000
ENDCHAR
STARTCHAR q
ENCODING 113
SWIDTH 1000 0
DWIDTH 12 0
BBX 9 7 0 0
BITMAP
7F80
C380
C380
C380
7F80
0380
0380
ENDCHAR
STARTCHAR r
ENCODING 114
SWIDTH 1000 0
DWIDTH 12 0
BBX 9 7 0 0
BITMAP
EF00
EF00
F980
F080
E000
E000
E000
ENDCHAR
STARTCHAR s
ENCODING 115
SWIDTH 1000 0
DWIDTH 12 0
BBX 10 7 0 0
BITMAP
7FC0
E000
E000
FFC0
01C0
01C0
FF80
ENDCHAR
STARTCHAR t
ENCODING 116
SWIDTH 1000 0
DWIDTH 12 0
BBX 10 10 0 0
BITMAP
1C00
1C00
1C00
FFC0
1C00
1C00
1C00
1C00
1C00
1FC0
ENDCHAR
STARTCHAR u
ENCODING 117
SWIDTH 1000 0
DWIDTH 12 0
BBX 10 7 0 0
BITMAP
E1C0
E1C0
E1C0
E1C0
E1C0
E1C0
7F80
ENDCHAR
STARTCHAR v
ENCODING 118
SWIDTH 1000 0
DWIDTH 12 0
BBX 10 7 0 0
BITMAP
E1C0
E1C0
E1C0
7380
7380
3F00
0C00
ENDCHAR
STARTCHAR w
ENCODING 119
SWIDTH 1000 0
DWIDTH 12 0
BBX 10 7 0 0
BITMAP
E1C0
EDC0
EDC0
EDC0
FFC0
F3C0
7380
ENDCHAR
STARTCHAR x
ENCODING 120
SWIDTH 1000 0
DWIDTH 12 0
BBX 10 7 0 0
BITMAP
F3C0
7380
7F80
1E00
3F00
7F80
F3C0
ENDCHAR
STARTCHAR y
ENCODING 121
SWIDTH 1000 0
DWIDTH 12 0
BBX 10 7 0 0
BITMAP
E1C0
E1C0
E1C0
7380
7380
1E00
FC00
ENDCHAR
STARTCHAR z
ENCODING 122
SWIDTH 1000 0
DWIDTH 12 0
BBX 10 7 0 0
BITMAP
FFC0
0F80
0F80
1E00
7C00
7C00
FF80
ENDCHAR
STARTCHAR braceleft
ENCODING 123
SWIDTH 1000 0
DWIDTH 12 0
BBX 6 10 2 0
BITMAP
3C
3C
70
70
70
F0
70
70
3C
3C
ENDCHAR
STARTCHAR bar
ENCODING 124
SWIDTH 1000 0
DWIDTH 12 0
BBX 3 10 4 0
BITMAP
E0
E0
E0
E0
E0
E0
E0
E0
E0
E0
ENDCHAR
STARTCHAR braceright
ENCODING 125
SWIDTH 1000 0
DWIDTH 12 0
BBX 7 10 2 0
BITMAP
F0
F0
1C
1C
1C
1E
1C
1C
F0
F0
ENDCHAR
STARTCHAR asciitilde
ENCODING 126
SWIDTH 1000 0
DWIDTH 12 0
BBX 9 5 1 2
BITMAP
7980
ED80
CD80
CD80
C700
ENDCHAR
STARTCHAR uni2B1A
ENCODING 11034
SWIDTH 1000 0
DWIDTH 12 0
BBX 9 9 0 2
BITMAP
DC80
9080
0000
C080
8000
8000
0000
0000
D080
ENDCHAR
ENDFONT
